<svg xmlns="http://www.w3.org/2000/svg" xmlns:xlink="http://www.w3.org/1999/xlink" width="500" zoomAndPan="magnify" viewBox="0 0 375 374.999991" height="500" preserveAspectRatio="xMidYMid meet" version="1.0"><defs><g/><clipPath id="bd108ffd81"><path d="M 22.734375 0 L 351.984375 0 L 351.984375 375 L 22.734375 375 Z M 22.734375 0 " clip-rule="nonzero"/></clipPath></defs><g clip-path="url(#bd108ffd81)"><path fill="#000000" d="M 346.65625 375 L 28.34375 375 C 25.242188 375 22.730469 372.488281 22.730469 369.386719 L 22.730469 129.253906 C 22.730469 127.515625 23.535156 125.882812 24.90625 124.816406 L 184.0625 1.550781 C 186.082031 -0.0234375 188.910156 -0.0234375 190.929688 1.550781 L 350.085938 124.816406 C 351.457031 125.882812 352.261719 127.515625 352.261719 129.253906 L 352.261719 369.386719 C 352.269531 372.488281 349.75 375 346.65625 375 Z M 33.957031 363.777344 L 341.035156 363.777344 L 341.035156 132.003906 L 187.5 13.089844 L 33.957031 132.003906 Z M 33.957031 363.777344 " fill-opacity="1" fill-rule="nonzero"/></g><g fill="#000000" fill-opacity="1"><g transform="translate(64.693136, 296.944697)"><g><path d="M 52.984375 -128.625 C 42.816406 -128.625 34.726562 -123.242188 28.71875 -112.484375 C 22.707031 -101.734375 19.703125 -86.832031 19.703125 -67.78125 C 19.703125 -55.382812 21.085938 -44.59375 23.859375 -35.40625 C 26.628906 -26.226562 30.601562 -19.171875 35.78125 -14.234375 C 40.957031 -9.304688 46.96875 -6.84375 53.8125 -6.84375 C 60.84375 -6.84375 66.882812 -8.109375 71.9375 -10.640625 L 71.9375 -2.3125 C 67.132812 0.457031 60.816406 1.84375 52.984375 1.84375 C 44.410156 1.84375 36.90625 -0.925781 30.46875 -6.46875 C 24.03125 -12.019531 19.050781 -20.050781 15.53125 -30.5625 C 12.019531 -41.070312 10.265625 -53.539062 10.265625 -67.96875 C 10.265625 -89.539062 14.097656 -106.488281 21.765625 -118.8125 C 29.441406 -131.144531 39.910156 -137.3125 53.171875 -137.3125 C 61.429688 -137.3125 68.644531 -135.398438 74.8125 -131.578125 L 70.640625 -123.625 C 65.460938 -126.957031 59.578125 -128.625 52.984375 -128.625 Z M 52.984375 -128.625 "/></g></g></g><g fill="#000000" fill-opacity="1"><g transform="translate(144.222974, 296.944697)"><g/></g></g><g fill="#000000" fill-opacity="1"><g transform="translate(179.823314, 296.944697)"><g/></g></g><g fill="#000000" fill-opacity="1"><g transform="translate(215.431358, 296.944697)"><g><path d="M 80.078125 0 L 71.015625 0 L 71.015625 -66.484375 L 23.859375 -66.484375 L 23.859375 0 L 14.796875 0 L 14.796875 -135.1875 L 23.859375 -135.1875 L 23.859375 -75.171875 L 71.015625 -75.171875 L 71.015625 -135.1875 L 80.078125 -135.1875 Z M 80.078125 0 "/></g></g></g><path stroke-linecap="round" transform="matrix(0, 0.75, -0.75, 0, 190.124346, 110.88216)" fill="none" stroke-linejoin="miter" d="M 3.50087 3.499129 L 298.65714 3.499129 " stroke="#000000" stroke-width="7" stroke-opacity="1" stroke-miterlimit="4"/></svg>